<mxfile host="app.diagrams.net" modified="2022-08-16T07:45:51.704Z" agent="5.0 (Windows NT 10.0; Win64; x64) AppleWebKit/537.36 (KHTML, like Gecko) Chrome/104.0.0.0 Safari/537.36" etag="Qc5mCLRXtF8UiTO7MBqa" version="20.2.4" type="github" pages="2">
  <diagram id="x3SVSytsU9DH5MeYV2FD" name="Page-1">
    <mxGraphModel dx="1422" dy="706" grid="1" gridSize="10" guides="1" tooltips="1" connect="1" arrows="1" fold="1" page="1" pageScale="1" pageWidth="827" pageHeight="1169" math="0" shadow="0">
      <root>
        <mxCell id="0" />
        <mxCell id="1" parent="0" />
        <mxCell id="bz9o8TeMPX7H78KnZhgS-1" value="加速引擎&lt;br&gt;" style="shape=umlLifeline;perimeter=lifelinePerimeter;whiteSpace=wrap;html=1;container=1;collapsible=0;recursiveResize=0;outlineConnect=0;" parent="1" vertex="1">
          <mxGeometry x="190" y="90" width="100" height="300" as="geometry" />
        </mxCell>
        <mxCell id="bz9o8TeMPX7H78KnZhgS-2" value="业务服务器" style="shape=umlLifeline;perimeter=lifelinePerimeter;whiteSpace=wrap;html=1;container=1;collapsible=0;recursiveResize=0;outlineConnect=0;" parent="1" vertex="1">
          <mxGeometry x="314" y="90" width="100" height="300" as="geometry" />
        </mxCell>
        <mxCell id="bz9o8TeMPX7H78KnZhgS-3" value="加速服务器" style="shape=umlLifeline;perimeter=lifelinePerimeter;whiteSpace=wrap;html=1;container=1;collapsible=0;recursiveResize=0;outlineConnect=0;" parent="1" vertex="1">
          <mxGeometry x="460" y="90" width="100" height="300" as="geometry" />
        </mxCell>
        <mxCell id="bz9o8TeMPX7H78KnZhgS-4" value="运维" style="shape=umlLifeline;perimeter=lifelinePerimeter;whiteSpace=wrap;html=1;container=1;collapsible=0;recursiveResize=0;outlineConnect=0;" parent="1" vertex="1">
          <mxGeometry x="60" y="90" width="100" height="300" as="geometry" />
        </mxCell>
        <mxCell id="bz9o8TeMPX7H78KnZhgS-5" value="配置加速服务器" style="html=1;verticalAlign=bottom;endArrow=block;" parent="1" target="bz9o8TeMPX7H78KnZhgS-2" edge="1">
          <mxGeometry x="-0.0533" y="10" width="80" relative="1" as="geometry">
            <mxPoint x="110" y="180" as="sourcePoint" />
            <mxPoint x="190" y="180" as="targetPoint" />
            <mxPoint as="offset" />
          </mxGeometry>
        </mxCell>
        <mxCell id="bz9o8TeMPX7H78KnZhgS-7" value="配置游戏所属加速服务器" style="html=1;verticalAlign=bottom;endArrow=block;" parent="1" source="bz9o8TeMPX7H78KnZhgS-4" target="bz9o8TeMPX7H78KnZhgS-2" edge="1">
          <mxGeometry x="-0.0533" y="10" width="80" relative="1" as="geometry">
            <mxPoint x="110" y="180" as="sourcePoint" />
            <mxPoint x="363.5" y="180" as="targetPoint" />
            <Array as="points">
              <mxPoint x="150" y="210" />
            </Array>
            <mxPoint as="offset" />
          </mxGeometry>
        </mxCell>
        <mxCell id="bz9o8TeMPX7H78KnZhgS-9" value="" style="html=1;verticalAlign=bottom;endArrow=block;" parent="1" target="bz9o8TeMPX7H78KnZhgS-2" edge="1">
          <mxGeometry x="-1" y="-71" width="80" relative="1" as="geometry">
            <mxPoint x="240" y="239.5" as="sourcePoint" />
            <mxPoint x="320" y="239.5" as="targetPoint" />
            <mxPoint x="-70" y="-60" as="offset" />
          </mxGeometry>
        </mxCell>
        <mxCell id="bz9o8TeMPX7H78KnZhgS-11" value="根据游戏ID获取加速服务器列表" style="edgeLabel;html=1;align=center;verticalAlign=middle;resizable=0;points=[];" parent="bz9o8TeMPX7H78KnZhgS-9" vertex="1" connectable="0">
          <mxGeometry x="-0.2227" y="2" relative="1" as="geometry">
            <mxPoint x="2" y="-7" as="offset" />
          </mxGeometry>
        </mxCell>
        <mxCell id="bz9o8TeMPX7H78KnZhgS-17" value="" style="html=1;verticalAlign=bottom;endArrow=block;" parent="1" source="bz9o8TeMPX7H78KnZhgS-1" target="bz9o8TeMPX7H78KnZhgS-3" edge="1">
          <mxGeometry x="-1" y="-71" width="80" relative="1" as="geometry">
            <mxPoint x="250" y="249.5" as="sourcePoint" />
            <mxPoint x="373.5" y="249.5" as="targetPoint" />
            <mxPoint x="-70" y="-60" as="offset" />
            <Array as="points">
              <mxPoint x="250" y="300" />
              <mxPoint x="380" y="300" />
            </Array>
          </mxGeometry>
        </mxCell>
        <mxCell id="bz9o8TeMPX7H78KnZhgS-18" value="根据PING/LOSS RATE/运营商返回最佳线路" style="edgeLabel;html=1;align=center;verticalAlign=middle;resizable=0;points=[];" parent="bz9o8TeMPX7H78KnZhgS-17" vertex="1" connectable="0">
          <mxGeometry x="-0.2227" y="2" relative="1" as="geometry">
            <mxPoint x="2" y="-7" as="offset" />
          </mxGeometry>
        </mxCell>
        <mxCell id="bz9o8TeMPX7H78KnZhgS-19" value="" style="html=1;verticalAlign=bottom;endArrow=block;" parent="1" source="bz9o8TeMPX7H78KnZhgS-1" target="bz9o8TeMPX7H78KnZhgS-2" edge="1">
          <mxGeometry x="-1" y="-71" width="80" relative="1" as="geometry">
            <mxPoint x="240" y="239.5" as="sourcePoint" />
            <mxPoint x="320" y="239.5" as="targetPoint" />
            <mxPoint x="-70" y="-60" as="offset" />
          </mxGeometry>
        </mxCell>
        <mxCell id="bz9o8TeMPX7H78KnZhgS-20" value="根据游戏ID获取加速服务器列表" style="edgeLabel;html=1;align=center;verticalAlign=middle;resizable=0;points=[];" parent="bz9o8TeMPX7H78KnZhgS-19" vertex="1" connectable="0">
          <mxGeometry x="-0.2227" y="2" relative="1" as="geometry">
            <mxPoint x="2" y="-7" as="offset" />
          </mxGeometry>
        </mxCell>
        <mxCell id="bz9o8TeMPX7H78KnZhgS-21" value="" style="html=1;verticalAlign=bottom;endArrow=block;" parent="1" source="bz9o8TeMPX7H78KnZhgS-1" target="bz9o8TeMPX7H78KnZhgS-2" edge="1">
          <mxGeometry x="-1" y="-71" width="80" relative="1" as="geometry">
            <mxPoint x="239.5" y="240" as="sourcePoint" />
            <mxPoint x="363.5" y="240" as="targetPoint" />
            <Array as="points">
              <mxPoint x="300" y="270" />
            </Array>
            <mxPoint x="-70" y="-60" as="offset" />
          </mxGeometry>
        </mxCell>
        <mxCell id="bz9o8TeMPX7H78KnZhgS-22" value="获取游戏相关DNS,规则/域名规则/下载规则" style="edgeLabel;html=1;align=center;verticalAlign=middle;resizable=0;points=[];" parent="bz9o8TeMPX7H78KnZhgS-21" vertex="1" connectable="0">
          <mxGeometry x="-0.2227" y="2" relative="1" as="geometry">
            <mxPoint x="2" y="-7" as="offset" />
          </mxGeometry>
        </mxCell>
        <mxCell id="bz9o8TeMPX7H78KnZhgS-23" value="" style="html=1;verticalAlign=bottom;endArrow=block;" parent="1" source="bz9o8TeMPX7H78KnZhgS-1" target="bz9o8TeMPX7H78KnZhgS-3" edge="1">
          <mxGeometry x="-1" y="-71" width="80" relative="1" as="geometry">
            <mxPoint x="239.5" y="300" as="sourcePoint" />
            <mxPoint x="509.5" y="300" as="targetPoint" />
            <mxPoint x="-70" y="-60" as="offset" />
            <Array as="points">
              <mxPoint x="250" y="300" />
              <mxPoint x="380" y="300" />
            </Array>
          </mxGeometry>
        </mxCell>
        <mxCell id="bz9o8TeMPX7H78KnZhgS-24" value="根据PING/LOSS RATE/运营商返回最佳线路" style="edgeLabel;html=1;align=center;verticalAlign=middle;resizable=0;points=[];" parent="bz9o8TeMPX7H78KnZhgS-23" vertex="1" connectable="0">
          <mxGeometry x="-0.2227" y="2" relative="1" as="geometry">
            <mxPoint x="2" y="-7" as="offset" />
          </mxGeometry>
        </mxCell>
        <mxCell id="bz9o8TeMPX7H78KnZhgS-33" value="" style="html=1;verticalAlign=bottom;endArrow=block;" parent="1" source="bz9o8TeMPX7H78KnZhgS-1" target="bz9o8TeMPX7H78KnZhgS-3" edge="1">
          <mxGeometry x="-1" y="-71" width="80" relative="1" as="geometry">
            <mxPoint x="239.5" y="300" as="sourcePoint" />
            <mxPoint x="509.5" y="300" as="targetPoint" />
            <mxPoint x="-70" y="-60" as="offset" />
            <Array as="points">
              <mxPoint x="380" y="360" />
            </Array>
          </mxGeometry>
        </mxCell>
        <mxCell id="bz9o8TeMPX7H78KnZhgS-34" value="持续根据PING/LOSS RATE探测游戏质量" style="edgeLabel;html=1;align=center;verticalAlign=middle;resizable=0;points=[];" parent="bz9o8TeMPX7H78KnZhgS-33" vertex="1" connectable="0">
          <mxGeometry x="-0.2227" y="2" relative="1" as="geometry">
            <mxPoint x="2" y="-7" as="offset" />
          </mxGeometry>
        </mxCell>
      </root>
    </mxGraphModel>
  </diagram>
  <diagram id="eltqOIIknaeu3wppzjJV" name="第 2 页">
    <mxGraphModel dx="1422" dy="706" grid="1" gridSize="10" guides="1" tooltips="1" connect="1" arrows="1" fold="1" page="1" pageScale="1" pageWidth="827" pageHeight="1169" math="0" shadow="0">
      <root>
        <mxCell id="0" />
        <mxCell id="1" parent="0" />
        <mxCell id="dcVd63TTk-VTxBfNISZq-3" value="" style="swimlane;startSize=0;" vertex="1" parent="1">
          <mxGeometry x="10" y="30" width="870" height="840" as="geometry" />
        </mxCell>
        <mxCell id="dcVd63TTk-VTxBfNISZq-5" value="流量拦截" style="text;html=1;align=center;verticalAlign=middle;resizable=0;points=[];autosize=1;strokeColor=none;fillColor=none;" vertex="1" parent="dcVd63TTk-VTxBfNISZq-3">
          <mxGeometry x="320" y="40" width="70" height="30" as="geometry" />
        </mxCell>
        <mxCell id="dcVd63TTk-VTxBfNISZq-8" value="" style="swimlane;startSize=0;" vertex="1" parent="dcVd63TTk-VTxBfNISZq-3">
          <mxGeometry x="170" y="390" width="390" height="120" as="geometry" />
        </mxCell>
        <mxCell id="dcVd63TTk-VTxBfNISZq-2" value="DNS分流" style="rounded=0;whiteSpace=wrap;html=1;" vertex="1" parent="dcVd63TTk-VTxBfNISZq-8">
          <mxGeometry x="20" y="40" width="120" height="60" as="geometry" />
        </mxCell>
        <mxCell id="dcVd63TTk-VTxBfNISZq-22" value="tcp/http分流" style="rounded=0;whiteSpace=wrap;html=1;" vertex="1" parent="dcVd63TTk-VTxBfNISZq-8">
          <mxGeometry x="150" y="40" width="120" height="60" as="geometry" />
        </mxCell>
        <mxCell id="dcVd63TTk-VTxBfNISZq-9" value="" style="swimlane;startSize=0;" vertex="1" parent="dcVd63TTk-VTxBfNISZq-3">
          <mxGeometry x="170" y="720" width="390" height="100" as="geometry" />
        </mxCell>
        <mxCell id="dcVd63TTk-VTxBfNISZq-10" value="进程拦截|包拦截" style="whiteSpace=wrap;html=1;" vertex="1" parent="dcVd63TTk-VTxBfNISZq-9">
          <mxGeometry x="30" y="20" width="120" height="60" as="geometry" />
        </mxCell>
        <mxCell id="dcVd63TTk-VTxBfNISZq-11" value="全局拦截" style="rounded=0;whiteSpace=wrap;html=1;" vertex="1" parent="dcVd63TTk-VTxBfNISZq-9">
          <mxGeometry x="230" y="20" width="120" height="60" as="geometry" />
        </mxCell>
        <mxCell id="dcVd63TTk-VTxBfNISZq-15" value="流量拦截" style="text;html=1;align=center;verticalAlign=middle;resizable=0;points=[];autosize=1;strokeColor=none;fillColor=none;" vertex="1" parent="dcVd63TTk-VTxBfNISZq-9">
          <mxGeometry x="150" width="70" height="30" as="geometry" />
        </mxCell>
        <mxCell id="dcVd63TTk-VTxBfNISZq-24" value="" style="swimlane;startSize=0;" vertex="1" parent="dcVd63TTk-VTxBfNISZq-3">
          <mxGeometry x="170" y="620" width="390" height="100" as="geometry" />
        </mxCell>
        <mxCell id="dcVd63TTk-VTxBfNISZq-25" value="IP&amp;lt;-&amp;gt;tcp/udp" style="whiteSpace=wrap;html=1;" vertex="1" parent="dcVd63TTk-VTxBfNISZq-24">
          <mxGeometry x="30" y="30" width="120" height="60" as="geometry" />
        </mxCell>
        <mxCell id="dcVd63TTk-VTxBfNISZq-26" value="icmp" style="rounded=0;whiteSpace=wrap;html=1;" vertex="1" parent="dcVd63TTk-VTxBfNISZq-24">
          <mxGeometry x="220" y="30" width="120" height="60" as="geometry" />
        </mxCell>
        <mxCell id="dcVd63TTk-VTxBfNISZq-27" value="可选IP协议处理" style="text;html=1;align=center;verticalAlign=middle;resizable=0;points=[];autosize=1;strokeColor=none;fillColor=none;" vertex="1" parent="dcVd63TTk-VTxBfNISZq-24">
          <mxGeometry x="130" width="110" height="30" as="geometry" />
        </mxCell>
        <mxCell id="dcVd63TTk-VTxBfNISZq-17" value="" style="swimlane;startSize=0;" vertex="1" parent="1">
          <mxGeometry x="180" y="545" width="390" height="100" as="geometry" />
        </mxCell>
        <mxCell id="dcVd63TTk-VTxBfNISZq-18" value="tcp" style="whiteSpace=wrap;html=1;" vertex="1" parent="dcVd63TTk-VTxBfNISZq-17">
          <mxGeometry x="20" y="30" width="120" height="60" as="geometry" />
        </mxCell>
        <mxCell id="dcVd63TTk-VTxBfNISZq-19" value="udp" style="rounded=0;whiteSpace=wrap;html=1;" vertex="1" parent="dcVd63TTk-VTxBfNISZq-17">
          <mxGeometry x="160" y="30" width="120" height="60" as="geometry" />
        </mxCell>
        <mxCell id="dcVd63TTk-VTxBfNISZq-23" value="常规流量代理" style="text;html=1;align=center;verticalAlign=middle;resizable=0;points=[];autosize=1;strokeColor=none;fillColor=none;" vertex="1" parent="dcVd63TTk-VTxBfNISZq-17">
          <mxGeometry x="135" width="100" height="30" as="geometry" />
        </mxCell>
        <mxCell id="dcVd63TTk-VTxBfNISZq-28" value="规则管理" style="text;html=1;align=center;verticalAlign=middle;resizable=0;points=[];autosize=1;strokeColor=none;fillColor=none;" vertex="1" parent="1">
          <mxGeometry x="315" y="425" width="70" height="30" as="geometry" />
        </mxCell>
      </root>
    </mxGraphModel>
  </diagram>
</mxfile>
